<svg width="25" viewBox="0 0 25 25" fill="none" xmlns="http://www.w3.org/2000/svg">
<path fill-rule="evenodd" clip-rule="evenodd" d="M14.6946 9.5L15.75 10.5659L13.5533 12.7844L15.7499 15.0029L14.6945 16.0687L12.4978 13.8503L10.3664 16.0029L9.31098 14.937L11.4424 12.7844L9.31092 10.6318L10.3663 9.56589L12.4978 11.7185L14.6946 9.5Z" fill="#222222"/>
<path fill-rule="evenodd" clip-rule="evenodd" d="M12.5 22C17.7467 22 22 17.7467 22 12.5C22 7.25329 17.7467 3 12.5 3C7.25329 3 3 7.25329 3 12.5C3 17.7467 7.25329 22 12.5 22ZM12.5 23C18.299 23 23 18.299 23 12.5C23 6.70101 18.299 2 12.5 2C6.70101 2 2 6.70101 2 12.5C2 18.299 6.70101 23 12.5 23Z" fill="#222222"/>
</svg>
